<?xml version="1.0" standalone="no"?>
<!DOCTYPE svg PUBLIC "-//W3C//DTD SVG 20010904//EN"
 "http://www.w3.org/TR/2001/REC-SVG-20010904/DTD/svg10.dtd">
<svg version="1.0" xmlns="http://www.w3.org/2000/svg"
 width="780.000000pt" height="780.000000pt" viewBox="0 0 780.000000 780.000000"
 preserveAspectRatio="xMidYMid meet">
<metadata>
Created by potrace 1.14, written by Peter Selinger 2001-2017
</metadata>
<g transform="translate(0.000000,780.000000) scale(0.100000,-0.100000)"
fill="#000000" stroke="none">
<path d="M4096 7582 c-3 -6 -7 -23 -18 -69 -1 -5 -10 -37 -20 -73 -10 -36 -21
-76 -24 -90 -2 -14 -8 -34 -11 -45 -7 -21 -9 -28 -17 -60 -2 -11 -14 -54 -26
-95 -11 -41 -23 -82 -25 -90 -2 -8 -11 -42 -20 -75 -9 -33 -18 -67 -20 -75 -7
-31 -54 -206 -64 -238 -5 -18 -10 -35 -10 -37 -1 -3 -1 -6 -2 -7 0 -2 -2 -10
-4 -18 -1 -8 -8 -35 -15 -60 -7 -25 -13 -49 -15 -55 -1 -5 -5 -17 -8 -25 -5
-13 -24 -87 -43 -165 -3 -11 -7 -27 -9 -35 -2 -8 -4 -16 -5 -17 -3 -4 -6 -13
-15 -58 -4 -22 -12 -49 -18 -60 -5 -10 -149 -158 -318 -328 l-309 -308 181
-181 c149 -149 180 -184 174 -202 -8 -27 -57 -215 -70 -266 -2 -8 -13 -46 -24
-85 -11 -38 -17 -73 -15 -77 3 -4 1 -8 -4 -8 -5 0 -9 -6 -9 -12 0 -7 -12 -58
-28 -113 -15 -55 -29 -107 -30 -115 -2 -8 -4 -15 -5 -15 -1 0 -3 -7 -5 -15 -9
-37 -16 -62 -45 -170 -17 -63 -32 -122 -34 -130 -2 -8 -9 -35 -16 -60 -7 -25
-13 -49 -15 -55 -1 -5 -5 -17 -8 -25 -4 -13 -14 -51 -31 -120 -2 -8 -11 -42
-20 -75 -9 -33 -19 -71 -22 -84 -3 -13 -9 -32 -15 -43 -5 -10 -8 -18 -5 -18 3
0 0 -15 -5 -32 -11 -34 -16 -56 -23 -86 -2 -9 -10 -37 -17 -62 -14 -51 -17
-63 -23 -87 -3 -10 -5 -18 -6 -18 -1 0 -3 -7 -5 -15 -6 -30 -61 -237 -156
-585 -22 -82 -42 -159 -44 -170 -2 -11 -30 -112 -61 -225 -31 -113 -56 -211
-57 -217 0 -7 -4 -13 -7 -13 -10 0 -1620 1611 -1620 1621 0 4 612 620 1360
1368 748 748 1360 1364 1360 1370 0 15 -477 491 -491 491 -7 0 -512 -499
-1122 -1110 -611 -610 -1112 -1110 -1114 -1110 -2 0 -3 33 -4 73 0 101 0 115
1 175 0 29 -2 57 -5 62 -3 5 -1 11 3 14 5 3 6 25 3 48 -4 24 -4 57 -1 73 3 17
3 49 -1 73 -3 23 -2 45 3 48 4 3 6 9 3 14 -3 5 -5 35 -5 67 1 32 0 67 0 78 -1
11 -1 27 -1 35 3 116 1 192 -4 199 -3 5 -1 12 4 15 5 3 6 21 2 39 -5 18 -5 41
-1 52 4 11 4 31 0 45 -3 14 -4 39 0 55 3 17 3 49 -1 73 -3 23 -3 45 1 47 4 2
4 24 1 47 -4 24 -4 57 -1 73 3 17 3 49 -1 73 -3 23 -3 45 1 47 4 2 4 24 0 47
-3 24 -3 57 0 74 4 16 4 39 0 50 -4 10 -4 28 0 39 4 11 6 29 4 40 -6 32 -7
126 -1 131 2 3 1 21 -3 40 -4 19 -5 36 -1 38 8 5 5 82 -4 95 -3 5 -1 12 4 16
6 3 7 15 2 27 -4 11 -4 40 -1 64 4 24 5 46 2 49 -3 3 -162 5 -354 5 l-348 0
-1 -317 c0 -175 0 -325 -1 -333 0 -8 0 -62 1 -120 0 -58 0 -112 0 -120 -1 -8
-1 -170 -1 -360 1 -190 1 -352 0 -360 0 -8 0 -62 1 -120 0 -58 0 -112 0 -120
-1 -8 -1 -170 -1 -360 1 -190 1 -352 0 -360 0 -8 0 -64 1 -125 0 -60 1 -142 1
-180 l1 -71 -152 -151 -151 -152 148 -148 149 -148 5 -98 c3 -54 3 -104 0
-112 -3 -8 -3 -170 0 -360 3 -190 3 -352 0 -360 -3 -8 -3 -62 0 -120 3 -58 3
-112 0 -120 -3 -8 -3 -170 0 -360 3 -190 3 -352 0 -360 -3 -8 -3 -62 0 -120 3
-58 3 -112 0 -120 -3 -8 -3 -170 0 -360 3 -190 3 -353 0 -361 -3 -9 -4 -31 -2
-50 l4 -34 338 0 c329 0 376 3 365 21 -3 4 -5 34 -5 66 1 32 0 67 0 78 -1 11
-1 27 -1 35 3 116 1 192 -4 199 -3 5 -1 12 4 15 5 3 6 21 2 39 -5 18 -5 41 -1
52 4 11 4 31 0 45 -3 14 -4 39 0 55 3 17 3 49 -1 73 -3 23 -3 45 1 47 4 2 4
24 1 47 -4 24 -4 57 -1 73 3 17 3 49 -1 73 -3 23 -2 45 3 48 4 3 6 9 3 14 -3
5 -5 35 -5 67 1 32 0 67 0 78 -1 11 -1 27 -1 35 3 116 1 192 -4 199 -3 5 -1
12 4 15 5 3 6 21 2 39 -5 18 -5 41 -1 52 4 11 4 31 0 45 -3 14 -4 39 0 55 3
17 3 49 -1 73 -3 23 -3 45 1 47 4 2 4 24 1 47 -4 24 -4 57 -1 73 3 17 3 49 -1
73 -3 23 -3 45 1 47 4 2 4 25 0 49 -4 25 -3 51 1 58 4 6 6 15 4 18 -7 11 -7
170 -1 170 3 0 322 -317 710 -705 l705 -704 -19 -68 c-52 -188 -71 -260 -76
-283 -2 -14 -12 -50 -21 -80 -9 -30 -18 -64 -20 -75 -2 -11 -13 -51 -24 -89
-11 -38 -22 -76 -24 -85 -5 -23 -21 -84 -44 -171 -11 -41 -19 -75 -18 -75 1
-1 40 -11 87 -23 155 -41 464 -124 528 -142 l63 -18 9 24 c6 14 12 35 14 47 3
12 14 56 26 97 12 41 23 83 25 93 2 10 14 52 25 95 12 42 23 82 25 87 1 6 6
25 10 43 4 17 11 32 16 32 5 0 60 -52 123 -115 l114 -114 251 251 251 251
-265 265 c-146 146 -265 265 -265 266 0 0 12 44 26 96 26 97 32 119 33 133 1
4 6 7 11 7 6 0 296 -286 645 -636 l635 -637 1621 1622 1621 1622 -1574 1574
c-1150 1151 -1573 1580 -1574 1597 0 13 2 28 5 33 3 6 6 15 7 20 1 6 16 64 34
129 17 66 33 126 36 135 2 9 12 50 23 91 12 41 21 78 21 81 0 6 -34 18 -70 25
-8 1 -31 8 -50 13 -34 11 -317 87 -353 96 -10 2 -27 7 -37 10 -10 3 -27 8 -37
10 -10 3 -44 11 -75 19 -32 8 -60 11 -62 8z m1588 -2726 l1114 -1115 -1115
-1115 c-614 -614 -1119 -1116 -1123 -1116 -4 0 -226 219 -493 486 l-486 486
-74 -76 c-66 -67 -100 -95 -82 -67 3 5 16 51 29 103 24 91 37 143 92 343 14
55 27 107 28 115 1 9 4 20 8 25 5 9 11 33 23 85 2 8 15 58 30 110 24 89 32
120 39 145 1 6 5 19 9 30 3 11 8 31 11 45 3 14 17 68 31 120 15 52 28 102 30
110 2 8 21 76 41 150 20 74 37 141 37 148 0 6 3 12 6 12 3 0 7 10 8 23 3 25 7
45 16 67 3 8 27 96 53 195 25 99 57 219 70 266 14 47 27 95 29 105 2 10 12 46
21 79 9 33 17 67 19 75 2 8 10 40 19 71 9 31 19 65 21 75 2 11 14 53 25 94 11
41 23 86 26 100 2 14 9 36 13 50 5 14 19 63 31 110 12 47 40 150 62 230 22 80
42 154 44 165 1 11 13 54 24 95 21 73 25 78 128 183 59 59 110 107 114 107 4
0 509 -501 1122 -1114z"/>
</g>
</svg>
